<?xml version="1.0" encoding="utf-8"?>
<!-- Generator: Adobe Illustrator 27.5.0, SVG Export Plug-In . SVG Version: 6.00 Build 0)  -->
<svg version="1.1" xmlns="http://www.w3.org/2000/svg" xmlns:xlink="http://www.w3.org/1999/xlink" x="0px" y="0px"
	 viewBox="0 0 500 500" style="enable-background:new 0 0 500 500;" xml:space="preserve">
<g id="BACKGROUND">
</g>
<g id="OBJECTS">
	<circle style="fill:#0455C0;" cx="250.494" cy="264.594" r="198.5"/>
	<g>
		<defs>
			<circle id="SVGID_1_" cx="250.494" cy="264.594" r="198.5"/>
		</defs>
		<clipPath id="SVGID_00000056400603030322013720000015558193818229820081_">
			<use xlink:href="#SVGID_1_"  style="overflow:visible;"/>
		</clipPath>
		<path style="clip-path:url(#SVGID_00000056400603030322013720000015558193818229820081_);fill:#FCC048;" d="M45.237,333.857
			c0,0,202.841-32.943,396.066,3.379c0,112.342,2.623,134.304,2.623,134.304H45.237V333.857z"/>
	</g>
	<g>
		<path style="fill:#D62829;" d="M136.181,394.674l3.942,6.476l246.928-2.534l4.223-5.631c0,0-87.284-3.942-143.032-3.379
			c-55.749,0.563-105.866,1.408-105.866,1.408L136.181,394.674z"/>
		<path style="fill:#F77F02;" d="M136.181,394.674l255.093-1.689c0-1.689-15.204-51.244-15.204-51.244l-230.879,2.816
			L136.181,394.674z"/>
	</g>
	<g>
		<path style="fill:#003049;" d="M151.667,253.613c0,0-16.291-150.737-17.152-158.2c-1.426-12.358-3.428-25.265,34.757-30.132
			c38.185-4.867,134.203-5.784,180.638,4.357c21.007,6.814,21.216,27.087,20.185,31.055c-1.031,3.968-19.085,168.124-19.085,168.124
			L151.667,253.613z"/>
		<path style="fill:#467B9D;" d="M180.386,246.292c0,0-10.136-90.099-10.699-99.109c-0.563-9.01,1.126-25.904,21.398-31.535
			s33.787,0.563,33.787,0.563l8.447,143.596l-51.244,4.505L180.386,246.292z"/>
		<path style="fill:#467B9D;" d="M326.148,246.292c0,0,10.136-90.099,10.699-99.109c0.563-9.01-1.126-25.904-21.398-31.535
			s-33.787,0.563-33.787,0.563l-8.447,143.596l51.244,4.505L326.148,246.292z"/>
		<path style="fill:#467B9D;" d="M193.047,47.594c0,0,3.182,40.103,3.185,40.139c0.021,0.264,12.203,0.477,12.901,0.504
			c35.241,1.365,70.522,2.446,105.748,3.493c3.242-22.821,4.813-35.209,2.032-44.15c-3.304-10.623-17.72-9.89-26.692-10.952
			c-12.221-1.446-24.537-1.962-36.826-2.056c-15.317-0.117-32.501-1.229-47.608,2.252C199.418,38.293,192.592,41.72,193.047,47.594z
			"/>
	</g>
	<path style="fill:#FFFFFF;" d="M79.212,360.793c0,0,3.379,9.761,15.767,14.641c12.389,4.88,22.149-2.252,22.149-10.512
		s-6.007-26.654-14.266-30.784c-8.259-4.13-16.518-3.379-24.026,3.379C71.328,344.275,73.581,351.032,79.212,360.793z"/>
	<g>
		<path style="fill:#FABBAF;" d="M445.052,177.029c-51.244-29.846-114.313-42.234-187.519-47.865c0,0-68.701-1.689-111.498,2.816
			c-42.797,4.505-71.021,19.002-87.283,37.729c-18.583,21.398-33.787,69.545,7.884,168.936c0.066,0,0.128-0.001,0.193-0.001
			c-0.824,5.147,0.721,10.642,3.373,15.017c7.508,12.389,13.14,17.269,11.262,11.638c-1.877-5.631-4.129-12.013-4.129-12.013
			c5.631,7.508,6.757,13.139,11.638,13.515c4.88-0.376-5.256-16.894-5.256-16.894c9.761,10.136,11.262,15.767,14.266,15.016
			c3.003-0.751-6.007-19.146-6.007-19.146c10.136,9.385,13.89,18.395,17.269,15.016c3.379-3.378-10.136-18.771-10.136-18.771
			s7.881-3.378,10.885-1.128c0.06,0.045-0.308-4.254-1.478-5.321c-1.955-1.784-3.551-3.109-6.029-2.937
			c-0.43-1.611-2.911-1.932-3.942-3.191l14.829-118.631l55.749,7.883v119.945l151.479,3.379l15.204-121.071
			c0,0,72.643,9.573,77.147,11.262c4.505,1.689,2.628,1.314-0.563,7.884c-1.774,3.653-48.991,91.788-48.991,91.788l22.243,14.641
			c0,0,57.438-44.768,79.118-70.953C484.594,251.62,496.296,206.874,445.052,177.029z"/>
		<path style="fill:#003049;" d="M113.376,211.816c-0.306,0-0.608-0.14-0.804-0.404c-0.11-0.148-11.17-14.8-26.977-14.8
			c-0.552,0-1-0.448-1-1c0-0.552,0.448-1,1-1c16.828,0,28.112,14.972,28.584,15.609c0.329,0.444,0.235,1.069-0.208,1.398
			C113.791,211.751,113.582,211.816,113.376,211.816z"/>
		<path style="fill:#003049;" d="M415.206,234.528c-0.189,0-0.381-0.054-0.55-0.166c-0.461-0.304-0.588-0.924-0.284-1.385
			c0.119-0.182,12.249-18.122,35.471-15.837c0.55,0.054,0.951,0.544,0.898,1.093c-0.054,0.549-0.532,0.959-1.093,0.897
			c-21.984-2.157-33.492,14.777-33.606,14.948C415.848,234.37,415.53,234.528,415.206,234.528z"/>
		<path style="fill:#003049;" d="M109.996,341.895c-0.036,0-0.073-0.002-0.109-0.006c-0.549-0.06-0.946-0.553-0.886-1.102
			c0.248-2.285-0.198-4.052-1.326-5.254c-1.894-2.018-5.111-1.898-5.141-1.897c-0.408,0.025-0.795-0.22-0.961-0.599
			c0,0.001,0,0.001,0,0.001c-0.002,0-1.463-2.546-9.737-3.728c-8.584-1.239-16.529,6.584-16.608,6.663
			c-0.391,0.389-1.023,0.391-1.414-0.002c-0.39-0.391-0.39-1.022,0.001-1.413c0.352-0.352,8.719-8.598,18.305-7.228
			c7.404,1.059,10.032,3.239,10.902,4.314c1.228,0.053,4.13,0.411,6.112,2.521c1.545,1.647,2.169,3.947,1.856,6.838
			C110.933,341.515,110.499,341.895,109.996,341.895z"/>
		<path style="fill:#003049;" d="M109.433,358.227c-0.392,0-0.764-0.232-0.923-0.615c-2.722-6.532-13.243-18.755-13.349-18.878
			c-0.361-0.418-0.315-1.049,0.103-1.41c0.417-0.361,1.049-0.316,1.411,0.103c0.441,0.511,10.837,12.588,13.681,19.415
			c0.212,0.51-0.029,1.096-0.539,1.308C109.691,358.203,109.561,358.227,109.433,358.227z"/>
		<path style="fill:#003049;" d="M97.326,361.324c-0.416,0-0.804-0.261-0.946-0.677c-3.578-10.458-8.582-18.579-8.632-18.66
			c-0.291-0.47-0.147-1.086,0.322-1.377c0.47-0.29,1.086-0.146,1.377,0.322c0.051,0.083,5.17,8.385,8.825,19.068
			c0.179,0.522-0.1,1.091-0.622,1.27C97.542,361.306,97.433,361.324,97.326,361.324z"/>
		<path style="fill:#003049;" d="M89.724,362.449c-0.411,0-0.796-0.255-0.942-0.664c-1.36-3.809-7.184-13.809-7.243-13.909
			c-0.278-0.477-0.117-1.09,0.36-1.367c0.479-0.279,1.089-0.117,1.368,0.359c0.243,0.417,5.976,10.262,7.399,14.245
			c0.186,0.52-0.085,1.092-0.605,1.277C89.949,362.431,89.836,362.449,89.724,362.449z"/>
		<path style="fill:#003049;" d="M98.547,330.446c-0.036,0-0.071-0.002-0.108-0.006c-0.549-0.059-0.946-0.552-0.887-1.101
			l2.159-20.084c0.059-0.551,0.553-0.951,1.101-0.888c0.549,0.059,0.946,0.552,0.887,1.101l-2.159,20.084
			C99.485,330.066,99.051,330.446,98.547,330.446z"/>
	</g>
	<g>
		<path style="fill:#D62829;" d="M109.433,137.047l10.136,76.021l49.554,5.631v119.945l161.052,14.078l5.631-131.77l62.506,10.699
			l13.515-73.487c0,0-72.924-23.369-111.122-25.246c-2.628,30.596-9.104,56.5-33.412,61.192
			c-23.621,4.56-44.034-10.815-46.927-31.91c-2.252-16.424,1.126-33.6,1.126-33.6S142.281,125.785,109.433,137.047z"/>
		<path style="fill:#003049;" d="M169.124,219.699c-0.124,0-0.248-0.023-0.368-0.07c-0.379-0.15-0.63-0.516-0.632-0.924
			l-0.188-29.094c-0.003-0.552,0.441-1.003,0.994-1.006c0.57,0.022,1.003,0.441,1.006,0.994l0.17,26.344
			c2.099-2.762,5.502-8.017,6.477-14.107c0.087-0.545,0.597-0.919,1.146-0.829c0.545,0.087,0.916,0.6,0.829,1.146
			c-1.533,9.58-8.417,16.928-8.709,17.236C169.656,219.59,169.393,219.699,169.124,219.699z"/>
		<path style="fill:#003049;" d="M335.807,221.952c-0.199,0-0.398-0.06-0.569-0.178c-7.64-5.289-8.47-21.307-8.501-21.986
			c-0.025-0.552,0.4-1.02,0.952-1.045c0.548-0.018,1.021,0.401,1.046,0.952c0.007,0.143,0.681,13.151,6.012,18.994l-0.878-33.186
			c-0.015-0.552,0.422-1.011,0.974-1.026c0.508-0.022,1.012,0.42,1.026,0.973l0.938,35.476c0.01,0.377-0.193,0.727-0.524,0.906
			C336.134,221.911,335.97,221.952,335.807,221.952z"/>
	</g>
	<g>
		<path style="fill:#FFFFFF;" d="M101.174,232.026l6.431-4.593c0.926-0.661,2.072-0.923,3.192-0.726
			c11.039,1.941,72.968,12.318,138.29,12.828c65.71,0.513,126.117-11.765,136.279-13.939c0.993-0.212,2.018-0.153,2.982,0.168
			l10.342,3.447l-13.89,12.013c0,0-68.137,15.767-145.848,12.952c-77.71-2.816-123.886-11.826-123.886-11.826L101.174,232.026z"/>
		<path style="fill:#003049;" d="M100.298,234.356c-0.215-1.879,1.463-3.424,3.317-3.047c16.975,3.447,88.825,17.023,160.675,15.547
			c68.811-1.414,117.898-13.873,132.076-17.898c1.958-0.556,3.823,1.111,3.502,3.121l-24.291,152.226
			c-0.206,1.29-1.278,2.263-2.582,2.342c-11.567,0.697-66.406,3.805-123.909,3.805c-53.494,0-116.934-5.879-129.533-7.1
			c-1.308-0.127-2.343-1.15-2.493-2.455L100.298,234.356z"/>
		<path style="fill:#467B9D;" d="M166.496,426.866l2.816,9.198c0,0,80.526,6.194,161.052,0.563c4.505-6.757,5.631-8.447,5.631-8.447
			l-3.003-4.505l-163.868-0.563L166.496,426.866z"/>
		<path style="fill:#003049;" d="M176.1,402.285l148.622,0.547c1.27,0.005,2.428,0.73,2.986,1.871l9.281,18.984
			c1.047,2.142-0.418,4.659-2.799,4.796c-20.83,1.203-102.603,5.296-165.184-0.445c-2.202-0.202-3.603-2.449-2.818-4.517
			c3.669-9.668,5.742-15.848,6.723-18.92C173.355,403.214,174.643,402.28,176.1,402.285z"/>
		<path style="fill:#FFFFFF;" d="M224.872,331.323c-0.563,1.689-10.699,92.915-10.699,92.915l73.206-0.563l-16.33-92.352H224.872z"
			/>
	</g>
	<g>
		<g>
			<path style="fill:#003049;" d="M297.742,97.521c-0.25-8.704-3.696-17.673-10.188-23.625c-2.473-2.268-5.507-4.21-8.854-5.757
				c-4.852-2.975-10.877-4.202-17.043-4.021c-6.165-0.181-12.19,1.046-17.043,4.021c-3.348,1.547-6.381,3.489-8.854,5.757
				c-6.492,5.952-9.938,14.921-10.188,23.625c-0.042,1.446,0.008,2.951,0.496,4.295c0.123,0.34,0.275,0.671,0.46,0.987
				c0.917,1.564,2.898,2.641,4.587,1.98c2.213-0.866,2.548-3.792,2.637-6.166c0.232-6.257,1.38-12.867,5.53-17.556
				c0.089-0.1,0.189-0.188,0.279-0.285c0.003,0.004,0.006,0.01,0.009,0.014c0.23,0.295,0.502,0.574,0.85,0.71
				c0.827,0.324,1.711-0.243,2.435-0.757c5.466-3.875,12.075-6.308,18.8-6.878c6.725,0.57,13.335,3.003,18.8,6.878
				c0.725,0.514,1.608,1.081,2.435,0.757c0.348-0.136,0.62-0.415,0.85-0.71c0.003-0.004,0.006-0.009,0.009-0.014
				c0.091,0.098,0.191,0.186,0.279,0.285c4.15,4.689,5.298,11.299,5.53,17.556c0.088,2.374,0.424,5.301,2.637,6.166
				c1.689,0.661,3.67-0.416,4.587-1.98c0.185-0.316,0.337-0.646,0.461-0.987C297.734,100.472,297.783,98.967,297.742,97.521z"/>
			<g>
				<path style="fill:#FFFFFF;" d="M228.341,128.593c0,0,3.937,26.902,5.905,31.823c1.453,3.631,9.129,4.057,12.283,4.457
					c2.502,0.317,5.018,0.522,7.536,0.658c0.754,0.041,2.016,0.334,2.74,0.134c0.949-0.262,0.99-0.177,1.328-1.266
					c0.075-0.242,0.214-2.263-0.113-2.307c-3.321-0.453-6.742-0.901-10.061-1.128c-3.147-0.215-6.261,0.203-9.098-1.542
					c-1.799-1.107-2.535-3.991-2.974-5.896c-0.984-4.265-4.593-25.59-4.593-25.59L228.341,128.593z"/>
				<path style="fill:#003049;" d="M246.386,165.967l11.855,0.847c0,0,2.018-3.952,1.261-7.057
					c-8.828-0.847-12.259-0.501-12.259-0.501S246.134,162.862,246.386,165.967z"/>
			</g>
			<path style="fill:#D62829;" d="M237.35,97.33l2.574,34.942c0,0-19.27,5.113-24.029-15.529
				C211.21,96.421,230.281,89.617,237.35,97.33z"/>
			<path style="fill:#D62829;" d="M283.024,97.33l-2.574,34.942c0,0,19.27,5.113,24.029-15.529
				C309.164,96.421,290.093,89.617,283.024,97.33z"/>
		</g>
		<g>
			<path style="fill:#FABBAF;" d="M288.617,105.074c-1.552,16.559,1.276,33.557-14.207,44.793
				c-5.46,3.962-12.523,6.007-19.228,4.837c-20.591-3.592-21.906-32.235-21.671-48.075c0.135-9.132,0.38-20.382,7.489-27.263
				c8.244-7.98,24.81-6.818,34.449-2.168C286.426,82.494,289.669,93.844,288.617,105.074z"/>
			<path style="fill:#003049;" d="M259.858,156.281c-0.374,0-0.749-0.006-1.126-0.019c-6.659-0.225-12.534-2.469-15.714-6.002
				c-6.762-7.514-8.852-19.914-8.938-20.438c-0.089-0.545,0.28-1.059,0.825-1.148c0.548-0.085,1.059,0.281,1.148,0.825
				c0.02,0.123,2.086,12.352,8.45,19.423c2.824,3.138,8.168,5.135,14.296,5.342c6.994,0.233,13.518-1.87,17.4-5.637
				c7.996-7.761,9.287-17.755,9.299-17.855c0.066-0.547,0.563-0.938,1.112-0.873c0.548,0.065,0.939,0.563,0.874,1.11
				c-0.052,0.436-1.369,10.781-9.893,19.054C273.543,153.992,266.975,156.281,259.858,156.281z"/>
			<path style="fill:#003049;" d="M263.445,167.65c-0.108,0-0.217-0.018-0.324-0.054c-0.522-0.179-0.801-0.747-0.622-1.27
				l4.266-12.467c0.179-0.523,0.746-0.801,1.271-0.623c0.522,0.179,0.801,0.748,0.622,1.27l-4.266,12.467
				C264.249,167.389,263.861,167.65,263.445,167.65z"/>
			<path style="fill:#F77F02;" d="M234.247,120.719c0,0,4.238-14.628,3.103-23.39c8.051-1.216,15.269,3.377,15.269,3.377
				c-1.64-7.546-3.609-10.826-3.609-10.826c16.732,14.435,25.59,26.902,25.59,26.902c0.984-9.514,0.328-20.012-4.921-26.246
				c14.435,11.483,14.763,25.59,14.763,25.59c3.281-6.89,7.546-15.748,5.905-25.918c-1.64-10.17-14.107-17.388-22.965-18.372
				c8.53-3.609,12.139-5.577,12.139-5.577c-11.154-4.593-16.732-2.297-21.981,4.265c0-6.562,0.328-8.858,0.328-8.858
				s-7.546-0.656-10.17,10.826c-12.795,6.562-13.779,15.42-14.763,25.59C231.678,111.064,234.247,120.719,234.247,120.719z"/>
		</g>
	</g>
</g>
</svg>
